#Comment line ignore any data following # character 
#Hierarchical Translation and Rotation (.htr) file 
[Header]	
#Header keywords are followed by a single value 
FileType HTR		#Single word string
DataType HTRS		#Translation followed by rotation and scale data
FileVersion 1		#integer
NumSegments 84		#integer
NumFrames 2		#integer
DataFrameRate 30		#integer, data frame rate in this file
EulerRotationOrder ZYX
CalibrationUnits mm
RotationUnits Degrees
GlobalAxisofGravity Y
BoneLengthAxis Y
ScaleFactor 1.00
[SegmentNames&Hierarchy]
#CHILD	PARENT
MASTER GLOBAL
root MASTER
chest root
L_mid_tent01 root
R_mid_tent01 root
spine01 root
Bip01_Neck chest
L_humerus chest
R_humerus chest
weapon_bone chest
Bip01_Head Bip01_Neck
eye_left_bone Bip01_Head
eye_right_bone Bip01_Head
L_forearm L_humerus
L_front_hand L_forearm
L_weapon_bone L_forearm
L_front_hand01_01 L_front_hand
L_front_hand02_01 L_front_hand
L_front_hand03_01 L_front_hand
L_front_hand01_02 L_front_hand01_01
L_front_hand02_02 L_front_hand02_01
L_front_hand03_02 L_front_hand03_01
R_forearm R_humerus
R_front_hand R_forearm
R_weapon_bone R_forearm
R_front_hand01_01 R_front_hand
R_front_hand02_01 R_front_hand
R_front_hand03_01 R_front_hand
R_front_hand01_02 R_front_hand01_01
R_front_hand02_02 R_front_hand02_01
R_front_hand03_02 R_front_hand03_01
null_rope01_connect L_mid_tent01
Rope1_Seg01 null_rope01_connect
Rope1_Seg02 Rope1_Seg01
Rope1_Seg03 Rope1_Seg02
Rope1_Seg04 Rope1_Seg03
Rope1_Seg05 Rope1_Seg04
Rope1_Seg06 Rope1_Seg05
Rope1_Seg07 Rope1_Seg06
Rope1_Seg09 Rope1_Seg07
L_mid_hand01 Rope1_Seg09
L_mid_hand02 Rope1_Seg09
L_mid_hand03 Rope1_Seg09
null_rope02_connect R_mid_tent01
Rope2_Seg01 null_rope02_connect
Rope2_Seg02 Rope2_Seg01
Rope2_Seg03 Rope2_Seg02
Rope2_Seg04 Rope2_Seg03
Rope2_Seg05 Rope2_Seg04
Rope2_Seg06 Rope2_Seg05
Rope2_Seg07 Rope2_Seg06
Rope2_Seg09 Rope2_Seg07
R_mid_hand01 Rope2_Seg09
R_mid_hand02 Rope2_Seg09
R_mid_hand03 Rope2_Seg09
spine02 spine01
spine03 spine02
pelvis spine03
null_rope03_connect pelvis
null_rope04_connect pelvis
Rope3_Seg01 null_rope03_connect
Rope3_Seg02 Rope3_Seg01
Rope3_Seg03 Rope3_Seg02
Rope3_Seg04 Rope3_Seg03
Rope3_Seg05 Rope3_Seg04
Rope3_Seg06 Rope3_Seg05
Rope3_Seg07 Rope3_Seg06
Rope3_Seg08 Rope3_Seg07
Rope3_Seg09 Rope3_Seg08
R_rear_hand01 Rope3_Seg09
R_rear_hand02 Rope3_Seg09
R_rear_hand03 Rope3_Seg09
Rope4_Seg01 null_rope04_connect
Rope4_Seg02 Rope4_Seg01
Rope4_Seg03 Rope4_Seg02
Rope4_Seg04 Rope4_Seg03
Rope4_Seg05 Rope4_Seg04
Rope4_Seg06 Rope4_Seg05
Rope4_Seg07 Rope4_Seg06
Rope4_Seg08 Rope4_Seg07
Rope4_Seg09 Rope4_Seg08
L_rear_hand01 Rope4_Seg09
L_rear_hand02 Rope4_Seg09
L_rear_hand03 Rope4_Seg09
[BasePosition]
#SegmentName Tx, Ty, Tz, Rx, Ry, Rz, BoneLength
MASTER 0.000000 0.000000 0.000000 -90.000000 0.000000 0.000000 10.000000 
root 0.000000 0.000000 0.000000 0.000000 0.000000 0.000000 10.000000 
chest 0.000000 0.000000 0.000000 0.000000 0.000000 0.000000 10.000000 
L_mid_tent01 0.000000 0.000000 0.000000 0.000000 0.000000 0.000000 10.000000 
R_mid_tent01 0.000000 0.000000 0.000000 0.000000 0.000000 0.000000 10.000000 
spine01 0.000000 0.000000 0.000000 0.000000 0.000000 0.000000 10.000000 
Bip01_Neck 0.000000 0.000000 0.000000 0.000000 0.000000 0.000000 10.000000 
L_humerus 0.000000 0.000000 0.000000 0.000000 0.000000 0.000000 10.000000 
R_humerus 0.000000 0.000000 0.000000 0.000000 0.000000 0.000000 10.000000 
weapon_bone 0.000000 0.000000 0.000000 0.000000 0.000000 0.000000 10.000000 
Bip01_Head 0.000000 0.000000 0.000000 0.000000 0.000000 0.000000 10.000000 
eye_left_bone 0.000000 0.000000 0.000000 0.000000 0.000000 0.000000 10.000000 
eye_right_bone 0.000000 0.000000 0.000000 0.000000 0.000000 0.000000 10.000000 
L_forearm 0.000000 0.000000 0.000000 0.000000 0.000000 0.000000 10.000000 
L_front_hand 0.000000 0.000000 0.000000 0.000000 0.000000 0.000000 10.000000 
L_weapon_bone 0.000000 0.000000 0.000000 0.000000 0.000000 0.000000 10.000000 
L_front_hand01_01 0.000000 0.000000 0.000000 0.000000 0.000000 0.000000 10.000000 
L_front_hand02_01 0.000000 0.000000 0.000000 0.000000 0.000000 0.000000 10.000000 
L_front_hand03_01 0.000000 0.000000 0.000000 0.000000 0.000000 0.000000 10.000000 
L_front_hand01_02 0.000000 0.000000 0.000000 0.000000 0.000000 0.000000 10.000000 
L_front_hand02_02 0.000000 0.000000 0.000000 0.000000 0.000000 0.000000 10.000000 
L_front_hand03_02 0.000000 0.000000 0.000000 0.000000 0.000000 0.000000 10.000000 
R_forearm 0.000000 0.000000 0.000000 0.000000 0.000000 0.000000 10.000000 
R_front_hand 0.000000 0.000000 0.000000 0.000000 0.000000 0.000000 10.000000 
R_weapon_bone 0.000000 0.000000 0.000000 0.000000 0.000000 0.000000 10.000000 
R_front_hand01_01 0.000000 0.000000 0.000000 0.000000 0.000000 0.000000 10.000000 
R_front_hand02_01 0.000000 0.000000 0.000000 0.000000 0.000000 0.000000 10.000000 
R_front_hand03_01 0.000000 0.000000 0.000000 0.000000 0.000000 0.000000 10.000000 
R_front_hand01_02 0.000000 0.000000 0.000000 0.000000 0.000000 0.000000 10.000000 
R_front_hand02_02 0.000000 0.000000 0.000000 0.000000 0.000000 0.000000 10.000000 
R_front_hand03_02 0.000000 0.000000 0.000000 0.000000 0.000000 0.000000 10.000000 
null_rope01_connect 0.000000 0.000000 0.000000 0.000000 0.000000 0.000000 10.000000 
Rope1_Seg01 0.000000 0.000000 0.000000 0.000000 0.000000 0.000000 10.000000 
Rope1_Seg02 0.000000 0.000000 0.000000 0.000000 0.000000 0.000000 10.000000 
Rope1_Seg03 0.000000 0.000000 0.000000 0.000000 0.000000 0.000000 10.000000 
Rope1_Seg04 0.000000 0.000000 0.000000 0.000000 0.000000 0.000000 10.000000 
Rope1_Seg05 0.000000 0.000000 0.000000 0.000000 0.000000 0.000000 10.000000 
Rope1_Seg06 0.000000 0.000000 0.000000 0.000000 0.000000 0.000000 10.000000 
Rope1_Seg07 0.000000 0.000000 0.000000 0.000000 0.000000 0.000000 10.000000 
Rope1_Seg09 0.000000 0.000000 0.000000 0.000000 0.000000 0.000000 10.000000 
L_mid_hand01 0.000000 0.000000 0.000000 0.000000 0.000000 0.000000 10.000000 
L_mid_hand02 0.000000 0.000000 0.000000 0.000000 0.000000 0.000000 10.000000 
L_mid_hand03 0.000000 0.000000 0.000000 0.000000 0.000000 0.000000 10.000000 
null_rope02_connect 0.000000 0.000000 0.000000 0.000000 0.000000 0.000000 10.000000 
Rope2_Seg01 0.000000 0.000000 0.000000 0.000000 0.000000 0.000000 10.000000 
Rope2_Seg02 0.000000 0.000000 0.000000 0.000000 0.000000 0.000000 10.000000 
Rope2_Seg03 0.000000 0.000000 0.000000 0.000000 0.000000 0.000000 10.000000 
Rope2_Seg04 0.000000 0.000000 0.000000 0.000000 0.000000 0.000000 10.000000 
Rope2_Seg05 0.000000 0.000000 0.000000 0.000000 0.000000 0.000000 10.000000 
Rope2_Seg06 0.000000 0.000000 0.000000 0.000000 0.000000 0.000000 10.000000 
Rope2_Seg07 0.000000 0.000000 0.000000 0.000000 0.000000 0.000000 10.000000 
Rope2_Seg09 0.000000 0.000000 0.000000 0.000000 0.000000 0.000000 10.000000 
R_mid_hand01 0.000000 0.000000 0.000000 0.000000 0.000000 0.000000 10.000000 
R_mid_hand02 0.000000 0.000000 0.000000 0.000000 0.000000 0.000000 10.000000 
R_mid_hand03 0.000000 0.000000 0.000000 0.000000 0.000000 0.000000 10.000000 
spine02 0.000000 0.000000 0.000000 0.000000 0.000000 0.000000 10.000000 
spine03 0.000000 0.000000 0.000000 0.000000 0.000000 0.000000 10.000000 
pelvis 0.000000 0.000000 0.000000 0.000000 0.000000 0.000000 10.000000 
null_rope03_connect 0.000000 0.000000 0.000000 0.000000 0.000000 0.000000 10.000000 
null_rope04_connect 0.000000 0.000000 0.000000 0.000000 0.000000 0.000000 10.000000 
Rope3_Seg01 0.000000 0.000000 0.000000 0.000000 0.000000 0.000000 10.000000 
Rope3_Seg02 0.000000 0.000000 0.000000 0.000000 0.000000 0.000000 10.000000 
Rope3_Seg03 0.000000 0.000000 0.000000 0.000000 0.000000 0.000000 10.000000 
Rope3_Seg04 0.000000 0.000000 0.000000 0.000000 0.000000 0.000000 10.000000 
Rope3_Seg05 0.000000 0.000000 0.000000 0.000000 0.000000 0.000000 10.000000 
Rope3_Seg06 0.000000 0.000000 0.000000 0.000000 0.000000 0.000000 10.000000 
Rope3_Seg07 0.000000 0.000000 0.000000 0.000000 0.000000 0.000000 10.000000 
Rope3_Seg08 0.000000 0.000000 0.000000 0.000000 0.000000 0.000000 10.000000 
Rope3_Seg09 0.000000 0.000000 0.000000 0.000000 0.000000 0.000000 10.000000 
R_rear_hand01 0.000000 0.000000 0.000000 0.000000 0.000000 0.000000 10.000000 
R_rear_hand02 0.000000 0.000000 0.000000 0.000000 0.000000 0.000000 10.000000 
R_rear_hand03 0.000000 0.000000 0.000000 0.000000 0.000000 0.000000 10.000000 
Rope4_Seg01 0.000000 0.000000 0.000000 0.000000 0.000000 0.000000 10.000000 
Rope4_Seg02 0.000000 0.000000 0.000000 0.000000 0.000000 0.000000 10.000000 
Rope4_Seg03 0.000000 0.000000 0.000000 0.000000 0.000000 0.000000 10.000000 
Rope4_Seg04 0.000000 0.000000 0.000000 0.000000 0.000000 0.000000 10.000000 
Rope4_Seg05 0.000000 0.000000 0.000000 0.000000 0.000000 0.000000 10.000000 
Rope4_Seg06 0.000000 0.000000 0.000000 0.000000 0.000000 0.000000 10.000000 
Rope4_Seg07 0.000000 0.000000 0.000000 0.000000 0.000000 0.000000 10.000000 
Rope4_Seg08 0.000000 0.000000 0.000000 0.000000 0.000000 0.000000 10.000000 
Rope4_Seg09 0.000000 0.000000 0.000000 0.000000 0.000000 0.000000 10.000000 
L_rear_hand01 0.000000 0.000000 0.000000 0.000000 0.000000 0.000000 10.000000 
L_rear_hand02 0.000000 0.000000 0.000000 0.000000 0.000000 0.000000 10.000000 
L_rear_hand03 0.000000 0.000000 0.000000 0.000000 0.000000 0.000000 10.000000 
#Beginning of Data. Separated by tabs
#Fr	Tx	Ty	Tz	Rx	Ry	Rz	SF
[MASTER]
6 851.144104 1431.345459 979.892395 0.001660 0.001660 0.001660 1932.197021
7 1024.431519 1711.231445 1154.897095 0.001660 0.001660 0.001660 2304.682373
[root]
6 -20.962833 -8.660439 1459.648926 -101.684875 -12.667017 -95.153717 1459.825195
7 -22.612150 -12.662506 1463.837891 -104.922302 -13.091650 -97.031242 1464.067261
[chest]
6 -84.512650 -34.090519 0.000000 -6.990901 7.064156 158.306519 91.129311
7 -84.512650 -34.090519 0.000000 -8.288519 8.660706 156.294434 91.129311
[L_mid_tent01]
6 27.298866 22.179222 -249.918793 -2.160031 5.816434 57.706779 252.381744
7 27.298822 22.179214 -249.918808 0.624619 3.019615 66.208984 252.381760
[R_mid_tent01]
6 23.228794 24.509907 226.238495 170.930832 -0.656633 58.186226 228.744751
7 23.228794 24.509907 226.238495 167.866898 3.462149 63.698685 228.744751
[spine01]
6 -0.361383 -0.195265 0.000000 0.002037 0.001166 30.407234 0.410763
7 -0.361383 -0.195265 0.000000 0.002050 0.001143 31.695620 0.410763
[Bip01_Neck]
6 165.484543 71.581718 0.000119 176.643677 -1.657967 43.431911 180.302734
7 165.484543 71.581718 0.000119 176.643677 -1.657966 43.431908 180.302734
[L_humerus]
6 -13.983130 -135.272980 -120.471481 -6.615113 65.460449 83.295097 181.680161
7 -13.983130 -135.272980 -120.471481 -6.736153 65.012352 83.155907 181.680161
[R_humerus]
6 -13.983309 -135.273102 125.287651 26.255243 -66.323738 69.444588 184.909012
7 -13.983309 -135.273102 125.287651 26.072714 -65.855179 69.635559 184.909012
[weapon_bone]
6 235.964890 -300.705902 0.000000 0.000000 -89.951546 -128.212341 382.234833
7 235.964890 -300.705902 0.000000 0.000000 -89.951546 -128.212341 382.234833
[Bip01_Head]
6 213.432922 185.747223 11.366807 4.987259 10.061256 -43.762226 283.169281
7 213.446030 185.710144 11.846542 4.985157 9.836426 -43.769676 283.174500
[eye_left_bone]
6 -24.626970 125.451866 -64.772606 0.000000 -90.000000 -99.840431 143.318359
7 -24.626970 125.451866 -64.772606 0.000000 -90.000000 -99.840431 143.318359
[eye_right_bone]
6 -24.626970 125.451866 64.327362 0.000000 -89.980217 80.156380 143.117676
7 -24.626970 125.451866 64.327362 0.000000 -89.965736 80.156380 143.117676
[L_forearm]
6 322.776093 0.000000 -0.000119 0.000419 -0.002309 -110.579201 322.776093
7 322.776093 0.000000 -0.000119 0.000422 -0.002309 -110.720451 322.776093
[L_front_hand]
6 241.149185 -0.042021 -3.300071 -178.667953 -1.835447 -27.422350 241.171753
7 241.149185 -0.042021 -3.300071 -178.667953 -1.835447 -27.422342 241.171753
[L_weapon_bone]
6 156.183838 0.000000 0.000000 0.000014 0.000007 0.000001 156.183838
7 156.183838 0.000000 0.000000 0.000014 0.000007 0.000001 156.183838
[L_front_hand01_01]
6 86.095154 20.947098 -0.655860 -0.349230 -0.490139 73.139862 88.609184
7 86.095154 20.947098 -0.655860 -0.335131 -0.500211 71.723785 88.609184
[L_front_hand02_01]
6 86.935165 -11.437475 24.513514 151.025055 -58.854893 -57.448074 91.046425
7 86.935165 -11.437475 24.513514 149.028946 -58.148323 -55.100948 91.046425
[L_front_hand03_01]
6 86.637497 -14.123976 -20.424902 -150.781433 57.074539 -58.996449 90.126129
7 86.637497 -14.123976 -20.424902 -148.918808 56.366669 -56.764694 90.126129
[L_front_hand01_02]
6 71.020905 -0.000179 0.000030 0.000318 -0.002326 -105.574486 71.020905
7 71.020905 -0.000179 0.000030 0.000317 -0.002326 -105.537254 71.020905
[L_front_hand02_02]
6 71.020927 -0.000119 0.000060 0.000318 -0.002326 -105.574486 71.020927
7 71.020927 -0.000119 0.000060 0.000317 -0.002326 -105.537254 71.020927
[L_front_hand03_02]
6 71.020905 -0.000060 0.000060 0.000318 -0.002326 -105.574486 71.020905
7 71.020905 -0.000060 0.000060 0.000317 -0.002326 -105.537254 71.020905
[R_forearm]
6 322.776428 -0.000060 0.000030 0.201428 0.067216 -109.231773 322.776428
7 322.776428 -0.000060 0.000030 0.201335 0.067493 -109.389412 322.776428
[R_front_hand]
6 238.847015 -0.006795 2.210259 -2.635298 -10.645461 -26.312504 238.857239
7 238.847015 -0.006795 2.210259 -2.635299 -10.645460 -26.312500 238.857239
[R_weapon_bone]
6 155.664093 0.002503 -0.000030 0.003487 0.001180 -90.988930 155.664078
7 155.664093 0.002503 -0.000030 0.003487 0.001180 -90.988930 155.664078
[R_front_hand01_01]
6 87.624611 14.231146 22.918642 -151.601074 -59.040489 58.224773 91.683487
7 87.624611 14.231146 22.918642 -149.707169 -58.394512 56.007454 91.683487
[R_front_hand02_01]
6 89.356956 14.367283 -19.491137 151.761566 57.399368 60.393955 92.579636
7 89.356956 14.367283 -19.491137 149.983459 56.758793 58.275940 92.579636
[R_front_hand03_01]
6 87.286232 -22.307278 -0.143439 0.146836 -0.431871 -73.769867 90.091743
7 87.286232 -22.307278 -0.143439 0.134949 -0.432464 -72.452232 90.091743
[R_front_hand01_02]
6 71.020905 0.000060 0.000119 0.002323 -0.000334 106.381714 71.020905
7 71.020905 0.000060 0.000119 0.002323 -0.000334 106.381706 71.020905
[R_front_hand02_02]
6 71.020844 -0.000030 -0.000119 0.002323 -0.000334 106.381714 71.020836
7 71.020844 -0.000030 -0.000119 0.002323 -0.000334 106.381706 71.020836
[R_front_hand03_02]
6 71.020905 0.000000 0.000030 0.002323 -0.000334 106.381714 71.020905
7 71.020905 0.000000 0.000030 0.002323 -0.000334 106.381706 71.020905
[null_rope01_connect]
6 328.732483 0.000000 -0.000238 -149.299225 -70.104538 -166.490036 328.732483
7 328.732483 0.000000 -0.000238 -143.050476 -69.128891 179.159500 328.732483
[Rope1_Seg01]
6 -0.000005 0.000033 0.000019 -54.947056 42.816795 -76.777016 0.000039
7 -0.000006 0.000032 0.000023 -69.949699 51.805977 -81.582779 0.000040
[Rope1_Seg02]
6 139.999863 -0.000179 0.000000 7.145223 3.163284 -10.439327 139.999863
7 139.999863 -0.000179 0.000000 4.192435 2.488486 -7.233517 139.999863
[Rope1_Seg03]
6 139.999924 0.000060 -0.000060 25.450052 2.414789 -15.935568 139.999924
7 139.999924 0.000060 -0.000060 11.104918 2.647561 -10.757168 139.999924
[Rope1_Seg04]
6 139.999924 -0.000060 -0.000119 45.152267 -3.837887 -13.307254 139.999924
7 139.999924 -0.000060 -0.000119 53.642628 0.430732 -19.653383 139.999924
[Rope1_Seg05]
6 139.999832 0.000119 -0.000060 -35.470409 9.340952 4.048802 139.999832
7 139.999832 0.000119 -0.000060 -22.796110 5.683382 2.042707 139.999832
[Rope1_Seg06]
6 139.999954 0.000119 -0.000060 -14.212224 2.464629 4.152183 139.999954
7 139.999954 0.000119 -0.000060 -22.943462 4.182508 5.336409 139.999954
[Rope1_Seg07]
6 139.999985 0.000060 0.000000 -4.270349 0.531913 1.610161 139.999985
7 139.999985 0.000060 0.000000 -4.660928 0.593479 1.526858 139.999985
[Rope1_Seg09]
6 121.602913 0.000119 -0.000089 -89.793175 -1.359789 0.847147 121.602913
7 121.602913 0.000119 -0.000089 -89.793175 -1.359789 0.847147 121.602913
[L_mid_hand01]
6 103.859421 1.038730 8.195221 112.493240 -49.600185 -18.031643 104.187431
7 103.859421 1.038730 8.195221 110.549706 -45.072773 -15.392938 104.187431
[L_mid_hand02]
6 105.572853 -4.139662 -10.864139 -152.303986 36.371010 -47.886745 106.211075
7 105.572853 -4.139662 -10.864139 -149.303925 33.991974 -42.687023 106.211075
[L_mid_hand03]
6 104.641464 17.579376 -3.913581 -12.027911 14.512395 53.523804 106.179977
7 104.641464 17.579376 -3.913581 -13.209491 13.449579 48.630810 106.179977
[null_rope02_connect]
6 328.732849 0.000179 -0.000119 1.741395 72.770767 138.821640 328.732849
7 328.732849 0.000179 -0.000119 5.740914 65.092430 149.498825 328.732849
[Rope2_Seg01]
6 0.000043 0.000134 0.000000 92.867813 24.984093 -142.895828 0.000140
7 0.000044 0.000130 0.000000 88.609383 25.259649 -152.195053 0.000137
[Rope2_Seg02]
6 139.999741 -0.000060 -0.000119 -1.637699 19.749304 -10.317245 139.999756
7 139.999741 -0.000060 -0.000119 -1.089298 13.546732 -8.957202 139.999756
[Rope2_Seg03]
6 140.000107 0.000030 0.000000 0.018115 27.807320 -19.520325 140.000107
7 140.000107 0.000030 0.000000 -0.771981 20.537912 -15.793498 140.000107
[Rope2_Seg04]
6 139.999802 0.000000 -0.000060 7.589101 15.096725 -10.489820 139.999802
7 139.999802 0.000000 -0.000060 11.414963 22.405266 -23.156322 139.999802
[Rope2_Seg05]
6 139.999985 -0.000060 0.000119 -26.773457 -5.570862 20.214457 139.999985
7 139.999985 -0.000060 0.000119 -16.588535 2.768969 9.840330 139.999985
[Rope2_Seg06]
6 139.999893 -0.000030 -0.000119 -8.629335 -15.113708 15.670999 139.999893
7 139.999893 -0.000030 -0.000119 -20.185419 -11.342437 27.725952 139.999893
[Rope2_Seg07]
6 139.999893 0.000060 -0.000060 -1.734773 -5.540918 5.252352 139.999893
7 139.999893 0.000060 -0.000060 -3.490104 -6.772136 9.338081 139.999893
[Rope2_Seg09]
6 121.338966 0.000089 -0.000060 33.793236 -1.359788 -0.847141 121.338966
7 121.338966 0.000089 -0.000060 33.793236 -1.359788 -0.847141 121.338966
[R_mid_hand01]
6 104.680779 11.144459 -10.335981 -25.740593 41.350704 56.606117 105.778534
7 104.680779 11.144459 -10.335981 -28.447895 39.731529 52.443096 105.778534
[R_mid_hand02]
6 104.070427 2.443552 8.231699 61.361111 -58.825871 25.577074 104.424065
7 104.070427 2.443552 8.231699 63.902641 -55.672291 22.558332 104.424065
[R_mid_hand03]
6 106.028137 -11.221827 -5.996406 -174.179749 14.727765 -65.439743 106.788818
7 106.028137 -11.221827 -5.996406 -173.262527 14.339042 -61.789948 106.788818
[spine02]
6 129.756927 0.001550 0.000119 0.478034 -4.031582 -14.589011 129.756927
7 129.756927 0.001550 0.000119 0.490683 -4.030020 -14.808994 129.756927
[spine03]
6 78.614075 0.081768 -4.898965 1.963992 3.798851 17.515518 78.766609
7 78.614075 0.081764 -4.898957 1.972745 3.793459 17.643412 78.766609
[pelvis]
6 169.435242 0.051022 0.000000 -0.068670 -0.178384 16.198400 169.435257
7 169.435242 0.051022 0.000000 -0.069105 -0.178216 16.478197 169.435257
[null_rope03_connect]
6 -1.257226 -2.466202 137.391083 -142.798660 -77.221794 -164.486511 137.418976
7 -1.257226 -2.466202 137.391083 -142.145599 -73.109421 -166.546326 137.418976
[null_rope04_connect]
6 -1.259640 -2.480268 -137.844437 -142.798660 -77.221794 -164.486511 137.872513
7 -1.259640 -2.480268 -137.844437 -142.145599 -73.109421 -166.546326 137.872513
[Rope3_Seg01]
6 -0.000017 -0.000143 -0.000153 -153.433456 24.719305 -130.637085 0.000210
7 -0.000016 -0.000156 -0.000153 -159.223846 24.853790 -139.067825 0.000219
[Rope3_Seg02]
6 139.999924 -0.000119 0.000060 -6.508841 -11.565711 -5.231118 139.999924
7 139.999924 -0.000119 0.000060 -8.610019 -11.245265 -4.772758 139.999924
[Rope3_Seg03]
6 139.999924 -0.000119 0.000119 -3.413871 -11.843082 -7.175822 139.999924
7 139.999924 -0.000119 0.000119 -4.299347 -10.784417 -6.685687 139.999924
[Rope3_Seg04]
6 139.999924 0.000119 0.000000 -1.355511 -14.977671 -10.375908 139.999924
7 139.999924 0.000119 0.000000 -2.650645 -14.914285 -10.128219 139.999924
[Rope3_Seg05]
6 139.999924 -0.000238 0.000060 0.186382 -0.264198 -0.750527 139.999924
7 139.999924 -0.000238 0.000060 -0.010718 -2.789331 -3.149813 139.999924
[Rope3_Seg06]
6 139.999893 -0.000119 -0.000060 3.041383 11.143770 7.311785 139.999893
7 139.999893 -0.000119 -0.000060 3.118741 9.392835 4.865938 139.999893
[Rope3_Seg07]
6 139.999771 0.000060 -0.000119 2.966901 7.483538 4.381146 139.999771
7 139.999771 0.000060 -0.000119 5.046648 10.556430 5.083023 139.999771
[Rope3_Seg08]
6 139.999985 -0.000060 0.000000 1.991007 3.670619 1.847165 139.999985
7 139.999985 -0.000060 0.000000 3.158610 4.696129 1.527631 139.999985
[Rope3_Seg09]
6 90.185997 -0.000179 -0.000060 89.793228 -1.359877 -0.847183 90.185997
7 90.185997 -0.000179 -0.000060 89.793228 -1.359877 -0.847183 90.185997
[R_rear_hand01]
6 103.366196 -6.073594 -10.757982 -171.684540 23.302565 -59.125771 104.101845
7 103.366196 -6.073594 -10.757982 -169.896027 22.621880 -54.548431 104.101845
[R_rear_hand02]
6 100.509819 12.039542 -7.992327 -21.930750 32.777496 56.381863 101.543350
7 100.509819 12.039542 -7.992327 -24.381289 31.099262 51.752331 101.543350
[R_rear_hand03]
6 101.539970 5.215704 5.435467 79.009171 -58.663548 13.282337 101.819031
7 101.539970 5.215704 5.435467 80.187729 -54.464619 11.876325 101.819031
[Rope4_Seg01]
6 0.000000 -0.000186 -0.000172 57.066936 43.230961 -96.077011 0.000253
7 0.000000 -0.000216 -0.000175 58.584049 46.383453 -95.258141 0.000278
[Rope4_Seg02]
6 139.999985 0.000060 0.000119 -0.204302 -9.688754 -2.021096 139.999985
7 139.999985 0.000060 0.000119 -0.131350 -13.115685 -2.870924 139.999985
[Rope4_Seg03]
6 139.999924 0.000000 -0.000238 0.155242 -8.625445 -1.904747 139.999924
7 139.999924 0.000000 -0.000238 0.367937 -10.542059 -2.515828 139.999924
[Rope4_Seg04]
6 139.999985 0.000000 0.000119 0.899361 -13.285610 -3.728580 139.999985
7 139.999985 0.000000 0.000119 1.069205 -13.397740 -4.123581 139.999985
[Rope4_Seg05]
6 139.999802 -0.000060 -0.000119 0.403887 -3.137823 -0.415106 139.999802
7 139.999802 -0.000060 -0.000119 0.458701 -2.742342 -0.286358 139.999802
[Rope4_Seg06]
6 139.999924 0.000000 0.000060 0.223660 8.642215 3.396676 139.999924
7 139.999924 0.000000 0.000060 0.333750 6.710114 3.212142 139.999924
[Rope4_Seg07]
6 139.999802 0.000000 0.000000 0.831850 15.032902 5.606077 139.999802
7 139.999802 0.000000 0.000000 1.045502 15.935298 6.948974 139.999802
[Rope4_Seg08]
6 139.999924 0.000000 0.000119 -1.220491 6.781608 2.624921 139.999924
7 139.999924 0.000000 0.000119 -1.132688 8.878793 3.992372 139.999924
[Rope4_Seg09]
6 90.185791 0.000060 0.000060 -135.617828 2.228885 0.850567 90.185791
7 90.185791 0.000060 0.000060 -135.617828 2.228885 0.850567 90.185791
[L_rear_hand01]
6 101.696655 -8.392275 -7.654577 -30.719053 -24.879360 141.681381 102.329041
7 101.696655 -8.392275 -7.654577 -31.684452 -23.583008 144.025742 102.329041
[L_rear_hand02]
6 102.726799 -1.568258 5.773216 82.428497 41.230476 171.131027 102.900848
7 102.726799 -1.568258 5.773216 82.701553 38.753956 171.553619 102.900848
[L_rear_hand03]
6 104.552910 9.721220 -10.420293 -164.822937 -19.676035 -139.457687 105.519653
7 104.552910 9.721220 -10.420293 -163.975403 -19.004421 -142.009338 105.519653
